<svg xmlns="http://www.w3.org/2000/svg" xmlns:xlink="http://www.w3.org/1999/xlink" width="500" zoomAndPan="magnify" viewBox="0 0 375 374.999991" height="500" preserveAspectRatio="xMidYMid meet" version="1.0"><defs><g/><clipPath id="6ff61b9041"><path d="M 80.109375 6.78125 L 294.609375 6.78125 L 294.609375 247.433594 L 80.109375 247.433594 Z M 80.109375 6.78125 " clip-rule="nonzero"/></clipPath></defs><g fill="#4c4c4c" fill-opacity="1"><g transform="translate(75.541935, 344.814702)"><g><path d="M 14.558594 0 L 14.558594 -26.980469 L 14.59375 -26.980469 L 35.347656 0 L 44.09375 0 L 44.09375 -43.425781 L 33.972656 -43.425781 L 33.972656 -16.476562 L 13.28125 -43.425781 L 4.4375 -43.425781 L 4.4375 0 Z M 14.558594 0 "/></g></g></g><g fill="#4c4c4c" fill-opacity="1"><g transform="translate(137.14099, 344.814702)"><g><path d="M 14.558594 0 L 14.558594 -43.425781 L 4.4375 -43.425781 L 4.4375 0 Z M 14.558594 0 "/></g></g></g><g fill="#4c4c4c" fill-opacity="1"><g transform="translate(169.246637, 344.814702)"><g><path d="M 45.277344 0 L 27.460938 -43.457031 L 17.976562 -43.457031 L 0.160156 0 L 10.855469 0 L 13.664062 -7.054688 L 31.769531 -7.054688 L 34.582031 0 Z M 22.382812 -29.023438 L 22.671875 -30.367188 L 22.765625 -30.367188 L 23.054688 -29.023438 L 28.449219 -15.453125 L 16.988281 -15.453125 Z M 22.382812 -29.023438 "/></g></g></g><g fill="#4c4c4c" fill-opacity="1"><g transform="translate(227.749534, 344.814702)"><g><path d="M 14.558594 0 L 14.558594 -12.898438 L 23.371094 -12.898438 C 32.410156 -12.898438 38.890625 -19.03125 38.890625 -28.386719 C 38.890625 -37.101562 32.34375 -43.425781 23.246094 -43.425781 L 4.4375 -43.425781 L 4.4375 0 Z M 14.558594 -34.421875 L 22.828125 -34.421875 C 26.152344 -34.421875 28.769531 -31.417969 28.769531 -28.386719 C 28.769531 -24.714844 26.117188 -21.871094 22.828125 -21.871094 L 14.558594 -21.871094 Z M 14.558594 -34.421875 "/></g></g></g><g fill="#4c4c4c" fill-opacity="1"><g transform="translate(280.443124, 344.814702)"><g><path d="M 14.558594 0 L 14.558594 -43.425781 L 4.4375 -43.425781 L 4.4375 0 Z M 14.558594 0 "/></g></g></g><g clip-path="url(#6ff61b9041)"><path fill="#85c7f2" d="M 187.332031 6.734375 C 201.664062 6.734375 213.296875 18.386719 213.296875 32.683594 C 213.296875 35.378906 213.296875 37.160156 212.386719 38.941406 L 250.804688 61.324219 C 255.273438 56.847656 261.527344 54.152344 268.691406 54.152344 C 282.972656 54.152344 294.609375 65.800781 294.609375 80.101562 C 294.609375 91.75 286.578125 101.570312 275.855469 105.132812 L 275.855469 149.855469 C 286.578125 152.550781 294.609375 162.371094 294.609375 174.019531 C 294.609375 188.316406 282.972656 199.96875 268.691406 199.96875 C 254.410156 199.96875 242.773438 188.316406 242.773438 174.019531 C 242.773438 162.371094 250.804688 152.550781 261.527344 149.855469 L 261.527344 105.132812 C 250.804688 101.570312 242.773438 91.703125 242.773438 80.101562 C 242.773438 78.320312 242.773438 76.539062 243.6875 73.839844 L 205.269531 52.371094 C 200.796875 55.933594 194.546875 58.628906 187.382812 58.628906 C 173.101562 58.628906 161.464844 46.980469 161.464844 32.683594 C 161.464844 18.386719 173.050781 6.734375 187.332031 6.734375 Z M 131.027344 86.359375 L 169.445312 107.828125 C 173.917969 104.265625 180.167969 101.570312 187.332031 101.570312 C 201.613281 101.570312 213.25 113.21875 213.25 127.515625 C 213.25 139.167969 205.21875 148.988281 194.496094 151.683594 L 194.496094 196.40625 C 205.21875 199.96875 213.25 209.835938 213.25 221.4375 C 213.25 235.734375 201.613281 247.382812 187.332031 247.382812 C 173.050781 247.382812 161.417969 235.734375 161.417969 221.4375 C 161.417969 209.789062 169.445312 199.96875 179.304688 196.40625 L 179.304688 151.683594 C 169.496094 148.988281 161.417969 139.167969 161.417969 127.515625 C 161.417969 124.820312 161.417969 123.039062 162.328125 121.257812 L 123.910156 98.875 C 118.527344 103.351562 112.273438 106.046875 106.023438 106.046875 C 91.742188 106.046875 80.109375 94.445312 80.109375 80.101562 C 80.109375 65.753906 91.742188 54.152344 106.023438 54.152344 C 120.304688 54.152344 131.941406 65.800781 131.941406 80.101562 C 131.941406 81.882812 131.027344 83.710938 131.027344 86.359375 Z M 106.023438 148.121094 C 120.304688 148.121094 131.941406 159.769531 131.941406 174.066406 C 131.941406 188.367188 120.304688 200.015625 106.023438 200.015625 C 91.742188 200.015625 80.109375 188.367188 80.109375 174.066406 C 80.109375 159.769531 91.742188 148.121094 106.023438 148.121094 Z M 106.023438 148.121094 " fill-opacity="1" fill-rule="nonzero"/></g></svg>