<svg xmlns="http://www.w3.org/2000/svg" xmlns:xlink="http://www.w3.org/1999/xlink" width="500" zoomAndPan="magnify" viewBox="0 0 375 112.499997" height="150" preserveAspectRatio="xMidYMid meet" version="1.0"><defs><g/><clipPath id="7be50ceb11"><path d="M 157.011719 1.035156 L 218.242188 1.035156 L 218.242188 68.984375 L 157.011719 68.984375 Z M 157.011719 1.035156 " clip-rule="nonzero"/></clipPath></defs><g fill="#4c4c4c" fill-opacity="1"><g transform="translate(155.717139, 96.996601)"><g><path d="M 4.132812 0 L 4.132812 -7.660156 L 4.140625 -7.660156 L 10.035156 0 L 12.519531 0 L 12.519531 -12.328125 L 9.644531 -12.328125 L 9.644531 -4.675781 L 3.769531 -12.328125 L 1.261719 -12.328125 L 1.261719 0 Z M 4.132812 0 "/></g></g></g><g fill="#4c4c4c" fill-opacity="1"><g transform="translate(173.203986, 96.996601)"><g><path d="M 4.132812 0 L 4.132812 -12.328125 L 1.261719 -12.328125 L 1.261719 0 Z M 4.132812 0 "/></g></g></g><g fill="#4c4c4c" fill-opacity="1"><g transform="translate(182.318194, 96.996601)"><g><path d="M 12.851562 0 L 7.796875 -12.335938 L 5.101562 -12.335938 L 0.046875 0 L 3.082031 0 L 3.878906 -2.003906 L 9.019531 -2.003906 L 9.816406 0 Z M 6.355469 -8.238281 L 6.4375 -8.621094 L 6.460938 -8.621094 L 6.542969 -8.238281 L 8.078125 -4.386719 L 4.820312 -4.386719 Z M 6.355469 -8.238281 "/></g></g></g><g fill="#4c4c4c" fill-opacity="1"><g transform="translate(198.926098, 96.996601)"><g><path d="M 4.132812 0 L 4.132812 -3.660156 L 6.636719 -3.660156 C 9.199219 -3.660156 11.039062 -5.402344 11.039062 -8.058594 C 11.039062 -10.53125 9.183594 -12.328125 6.597656 -12.328125 L 1.261719 -12.328125 L 1.261719 0 Z M 4.132812 -9.769531 L 6.480469 -9.769531 C 7.421875 -9.769531 8.167969 -8.917969 8.167969 -8.058594 C 8.167969 -7.015625 7.414062 -6.210938 6.480469 -6.210938 L 4.132812 -6.210938 Z M 4.132812 -9.769531 "/></g></g></g><g fill="#4c4c4c" fill-opacity="1"><g transform="translate(213.884847, 96.996601)"><g><path d="M 4.132812 0 L 4.132812 -12.328125 L 1.261719 -12.328125 L 1.261719 0 Z M 4.132812 0 "/></g></g></g><g fill="#636363" fill-opacity="1"><g transform="translate(95.027033, 108.246472)"><g><path d="M 1.179688 0 L 1.179688 -2.730469 L 3.308594 0 L 3.917969 0 L 3.917969 -3.902344 L 3.207031 -3.902344 L 3.207031 -1.171875 L 1.078125 -3.902344 L 0.464844 -3.902344 L 0.464844 0 Z M 1.179688 0 "/></g></g></g><g fill="#636363" fill-opacity="1"><g transform="translate(104.112293, 108.246472)"><g><path d="M 3.167969 0 L 3.167969 -0.640625 L 1.179688 -0.640625 L 1.179688 -1.683594 L 2.875 -1.683594 L 2.875 -2.285156 L 1.179688 -2.285156 L 1.179688 -3.265625 L 3.140625 -3.265625 L 3.140625 -3.902344 L 0.464844 -3.902344 L 0.464844 0 Z M 3.167969 0 "/></g></g></g><g fill="#636363" fill-opacity="1"><g transform="translate(112.167974, 108.246472)"><g><path d="M 2 0 L 2 -3.265625 L 3.160156 -3.265625 L 3.160156 -3.902344 L 0.125 -3.902344 L 0.125 -3.265625 L 1.285156 -3.265625 L 1.285156 0 Z M 2 0 "/></g></g></g><g fill="#636363" fill-opacity="1"><g transform="translate(120.154824, 108.246472)"><g><path d="M 2.023438 0 L 2.925781 -2.925781 L 3.824219 0 L 4.519531 0 L 5.808594 -3.90625 L 5.050781 -3.90625 L 4.230469 -1.300781 L 4.152344 -0.957031 L 4.140625 -0.957031 L 4.078125 -1.28125 L 3.300781 -3.902344 L 2.546875 -3.902344 L 1.769531 -1.273438 L 1.710938 -0.957031 L 1.699219 -0.957031 L 1.625 -1.265625 L 0.796875 -3.90625 L 0.0429688 -3.90625 L 1.332031 0 Z M 2.023438 0 "/></g></g></g><g fill="#636363" fill-opacity="1"><g transform="translate(130.702719, 108.246472)"><g><path d="M 2.292969 0.0820312 C 3.457031 0.0820312 4.402344 -0.824219 4.402344 -1.957031 C 4.402344 -3.09375 3.457031 -3.996094 2.292969 -3.996094 C 1.132812 -3.996094 0.191406 -3.09375 0.191406 -1.957031 C 0.191406 -0.824219 1.132812 0.0820312 2.292969 0.0820312 Z M 2.292969 -0.574219 C 1.527344 -0.574219 0.90625 -1.164062 0.90625 -1.953125 C 0.90625 -2.75 1.523438 -3.339844 2.292969 -3.339844 C 3.066406 -3.339844 3.6875 -2.753906 3.6875 -1.953125 C 3.6875 -1.164062 3.066406 -0.574219 2.292969 -0.574219 Z M 2.292969 -0.574219 "/></g></g></g><g fill="#636363" fill-opacity="1"><g transform="translate(139.99447, 108.246472)"><g><path d="M 1.179688 0 L 1.179688 -1.382812 L 1.847656 -1.382812 C 1.902344 -1.382812 1.949219 -1.382812 2 -1.386719 L 2.773438 0 L 3.59375 0 L 2.710938 -1.496094 C 3.1875 -1.664062 3.503906 -2.082031 3.503906 -2.632812 C 3.503906 -3.394531 2.941406 -3.902344 2.148438 -3.902344 L 0.464844 -3.902344 L 0.464844 0 Z M 1.179688 -3.265625 L 2.121094 -3.265625 C 2.5 -3.265625 2.789062 -2.988281 2.789062 -2.632812 C 2.789062 -2.25 2.503906 -1.988281 2.125 -1.988281 L 1.179688 -1.988281 Z M 1.179688 -3.265625 "/></g></g></g><g fill="#636363" fill-opacity="1"><g transform="translate(148.414376, 108.246472)"><g><path d="M 3.644531 -3.902344 L 2.808594 -3.902344 L 1.179688 -1.847656 L 1.179688 -3.902344 L 0.464844 -3.902344 L 0.464844 0 L 1.179688 0 L 1.179688 -0.902344 L 1.78125 -1.65625 L 2.996094 0 L 3.839844 0 L 2.25 -2.175781 Z M 3.644531 -3.902344 "/></g></g></g><g fill="#636363" fill-opacity="1"><g transform="translate(156.997754, 108.246472)"><g/></g></g><g fill="#636363" fill-opacity="1"><g transform="translate(163.1348, 108.246472)"><g><path d="M 1.179688 0 L 1.179688 -3.902344 L 0.464844 -3.902344 L 0.464844 0 Z M 1.179688 0 "/></g></g></g><g fill="#636363" fill-opacity="1"><g transform="translate(169.481204, 108.246472)"><g><path d="M 1.179688 0 L 1.179688 -2.730469 L 3.308594 0 L 3.917969 0 L 3.917969 -3.902344 L 3.207031 -3.902344 L 3.207031 -1.171875 L 1.078125 -3.902344 L 0.464844 -3.902344 L 0.464844 0 Z M 1.179688 0 "/></g></g></g><g fill="#636363" fill-opacity="1"><g transform="translate(178.566462, 108.246472)"><g><path d="M 1.179688 0 L 1.179688 -1.53125 L 2.875 -1.53125 L 2.875 -2.136719 L 1.179688 -2.136719 L 1.179688 -3.265625 L 3.140625 -3.265625 L 3.140625 -3.902344 L 0.464844 -3.902344 L 0.464844 0 Z M 1.179688 0 "/></g></g></g><g fill="#636363" fill-opacity="1"><g transform="translate(186.576253, 108.246472)"><g><path d="M 2.292969 0.0820312 C 3.457031 0.0820312 4.402344 -0.824219 4.402344 -1.957031 C 4.402344 -3.09375 3.457031 -3.996094 2.292969 -3.996094 C 1.132812 -3.996094 0.191406 -3.09375 0.191406 -1.957031 C 0.191406 -0.824219 1.132812 0.0820312 2.292969 0.0820312 Z M 2.292969 -0.574219 C 1.527344 -0.574219 0.90625 -1.164062 0.90625 -1.953125 C 0.90625 -2.75 1.523438 -3.339844 2.292969 -3.339844 C 3.066406 -3.339844 3.6875 -2.753906 3.6875 -1.953125 C 3.6875 -1.164062 3.066406 -0.574219 2.292969 -0.574219 Z M 2.292969 -0.574219 "/></g></g></g><g fill="#636363" fill-opacity="1"><g transform="translate(195.868001, 108.246472)"><g><path d="M 1.179688 0 L 1.179688 -1.382812 L 1.847656 -1.382812 C 1.902344 -1.382812 1.949219 -1.382812 2 -1.386719 L 2.773438 0 L 3.59375 0 L 2.710938 -1.496094 C 3.1875 -1.664062 3.503906 -2.082031 3.503906 -2.632812 C 3.503906 -3.394531 2.941406 -3.902344 2.148438 -3.902344 L 0.464844 -3.902344 L 0.464844 0 Z M 1.179688 -3.265625 L 2.121094 -3.265625 C 2.5 -3.265625 2.789062 -2.988281 2.789062 -2.632812 C 2.789062 -2.25 2.503906 -1.988281 2.125 -1.988281 L 1.179688 -1.988281 Z M 1.179688 -3.265625 "/></g></g></g><g fill="#636363" fill-opacity="1"><g transform="translate(204.287904, 108.246472)"><g><path d="M 1.179688 0 L 1.179688 -2.765625 L 2.335938 -1.164062 L 2.527344 -1.164062 L 3.699219 -2.757812 L 3.699219 0 L 4.414062 0 L 4.414062 -3.902344 L 3.789062 -3.902344 L 2.433594 -2.085938 L 1.089844 -3.902344 L 0.464844 -3.902344 L 0.464844 0 Z M 1.179688 0 "/></g></g></g><g fill="#636363" fill-opacity="1"><g transform="translate(213.863574, 108.246472)"><g><path d="M 3.953125 0 L 2.328125 -3.90625 L 1.652344 -3.90625 L 0.0273438 0 L 0.78125 0 L 1.089844 -0.753906 L 2.886719 -0.753906 L 3.199219 0 Z M 1.964844 -2.890625 L 1.988281 -2.984375 L 1.996094 -2.984375 L 2.011719 -2.890625 L 2.644531 -1.351562 L 1.335938 -1.351562 Z M 1.964844 -2.890625 "/></g></g></g><g fill="#636363" fill-opacity="1"><g transform="translate(222.547324, 108.246472)"><g><path d="M 2 0 L 2 -3.265625 L 3.160156 -3.265625 L 3.160156 -3.902344 L 0.125 -3.902344 L 0.125 -3.265625 L 1.285156 -3.265625 L 1.285156 0 Z M 2 0 "/></g></g></g><g fill="#636363" fill-opacity="1"><g transform="translate(230.53418, 108.246472)"><g><path d="M 1.179688 0 L 1.179688 -3.902344 L 0.464844 -3.902344 L 0.464844 0 Z M 1.179688 0 "/></g></g></g><g fill="#636363" fill-opacity="1"><g transform="translate(236.880591, 108.246472)"><g><path d="M 2.292969 0.0820312 C 3.457031 0.0820312 4.402344 -0.824219 4.402344 -1.957031 C 4.402344 -3.09375 3.457031 -3.996094 2.292969 -3.996094 C 1.132812 -3.996094 0.191406 -3.09375 0.191406 -1.957031 C 0.191406 -0.824219 1.132812 0.0820312 2.292969 0.0820312 Z M 2.292969 -0.574219 C 1.527344 -0.574219 0.90625 -1.164062 0.90625 -1.953125 C 0.90625 -2.75 1.523438 -3.339844 2.292969 -3.339844 C 3.066406 -3.339844 3.6875 -2.753906 3.6875 -1.953125 C 3.6875 -1.164062 3.066406 -0.574219 2.292969 -0.574219 Z M 2.292969 -0.574219 "/></g></g></g><g fill="#636363" fill-opacity="1"><g transform="translate(246.172346, 108.246472)"><g><path d="M 1.179688 0 L 1.179688 -2.730469 L 3.308594 0 L 3.917969 0 L 3.917969 -3.902344 L 3.207031 -3.902344 L 3.207031 -1.171875 L 1.078125 -3.902344 L 0.464844 -3.902344 L 0.464844 0 Z M 1.179688 0 "/></g></g></g><g fill="#636363" fill-opacity="1"><g transform="translate(255.257611, 108.246472)"><g/></g></g><g fill="#636363" fill-opacity="1"><g transform="translate(261.394664, 108.246472)"><g><path d="M 3.953125 0 L 2.328125 -3.90625 L 1.652344 -3.90625 L 0.0273438 0 L 0.78125 0 L 1.089844 -0.753906 L 2.886719 -0.753906 L 3.199219 0 Z M 1.964844 -2.890625 L 1.988281 -2.984375 L 1.996094 -2.984375 L 2.011719 -2.890625 L 2.644531 -1.351562 L 1.335938 -1.351562 Z M 1.964844 -2.890625 "/></g></g></g><g fill="#636363" fill-opacity="1"><g transform="translate(270.078422, 108.246472)"><g><path d="M 1.179688 0 L 1.179688 -1.246094 L 2.121094 -1.246094 C 2.90625 -1.246094 3.464844 -1.785156 3.464844 -2.589844 C 3.464844 -3.351562 2.898438 -3.902344 2.109375 -3.902344 L 0.464844 -3.902344 L 0.464844 0 Z M 1.179688 -3.265625 L 2.082031 -3.265625 C 2.460938 -3.265625 2.75 -2.945312 2.75 -2.589844 C 2.75 -2.1875 2.460938 -1.882812 2.085938 -1.882812 L 1.179688 -1.882812 Z M 1.179688 -3.265625 "/></g></g></g><g fill="#636363" fill-opacity="1"><g transform="translate(278.334861, 108.246472)"><g><path d="M 1.179688 0 L 1.179688 -3.902344 L 0.464844 -3.902344 L 0.464844 0 Z M 1.179688 0 "/></g></g></g><g clip-path="url(#7be50ceb11)"><path fill="#85c7f2" d="M 187.621094 1.019531 C 191.710938 1.019531 195.03125 4.34375 195.03125 8.421875 C 195.03125 9.191406 195.03125 9.699219 194.769531 10.207031 L 205.738281 16.597656 C 207.015625 15.320312 208.796875 14.550781 210.84375 14.550781 C 214.917969 14.550781 218.242188 17.875 218.242188 21.953125 C 218.242188 25.277344 215.949219 28.082031 212.886719 29.097656 L 212.886719 41.859375 C 215.949219 42.628906 218.242188 45.429688 218.242188 48.757812 C 218.242188 52.835938 214.917969 56.160156 210.84375 56.160156 C 206.765625 56.160156 203.445312 52.835938 203.445312 48.757812 C 203.445312 45.429688 205.738281 42.628906 208.796875 41.859375 L 208.796875 29.097656 C 205.738281 28.082031 203.445312 25.265625 203.445312 21.953125 C 203.445312 21.445312 203.445312 20.9375 203.707031 20.167969 L 192.738281 14.042969 C 191.464844 15.058594 189.679688 15.828125 187.632812 15.828125 C 183.558594 15.828125 180.234375 12.503906 180.234375 8.421875 C 180.234375 4.34375 183.542969 1.019531 187.621094 1.019531 Z M 171.546875 23.738281 L 182.515625 29.867188 C 183.789062 28.851562 185.574219 28.082031 187.621094 28.082031 C 191.695312 28.082031 195.019531 31.40625 195.019531 35.484375 C 195.019531 38.808594 192.726562 41.613281 189.664062 42.382812 L 189.664062 55.144531 C 192.726562 56.160156 195.019531 58.976562 195.019531 62.289062 C 195.019531 66.367188 191.695312 69.691406 187.621094 69.691406 C 183.542969 69.691406 180.222656 66.367188 180.222656 62.289062 C 180.222656 58.964844 182.515625 56.160156 185.328125 55.144531 L 185.328125 42.382812 C 182.527344 41.613281 180.222656 38.808594 180.222656 35.484375 C 180.222656 34.714844 180.222656 34.207031 180.484375 33.699219 L 169.515625 27.3125 C 167.980469 28.589844 166.195312 29.359375 164.410156 29.359375 C 160.335938 29.359375 157.011719 26.046875 157.011719 21.953125 C 157.011719 17.859375 160.335938 14.550781 164.410156 14.550781 C 168.488281 14.550781 171.808594 17.875 171.808594 21.953125 C 171.808594 22.460938 171.546875 22.984375 171.546875 23.738281 Z M 164.410156 41.367188 C 168.488281 41.367188 171.808594 44.691406 171.808594 48.769531 C 171.808594 52.851562 168.488281 56.175781 164.410156 56.175781 C 160.335938 56.175781 157.011719 52.851562 157.011719 48.769531 C 157.011719 44.691406 160.335938 41.367188 164.410156 41.367188 Z M 164.410156 41.367188 " fill-opacity="1" fill-rule="nonzero"/></g></svg>
