<svg xmlns="http://www.w3.org/2000/svg" xmlns:xlink="http://www.w3.org/1999/xlink" width="500" zoomAndPan="magnify" viewBox="0 0 375 112.499997" height="150" preserveAspectRatio="xMidYMid meet" version="1.0"><defs><g/><clipPath id="8ac5aaf4d8"><path d="M 156.726562 0.519531 L 217.953125 0.519531 L 217.953125 69.1875 L 156.726562 69.1875 Z M 156.726562 0.519531 " clip-rule="nonzero"/></clipPath></defs><g fill="#ffffff" fill-opacity="1"><g transform="translate(155.418475, 97.38407)"><g><path d="M 4.171875 0 L 4.171875 -7.730469 L 4.179688 -7.730469 L 10.128906 0 L 12.636719 0 L 12.636719 -12.441406 L 9.734375 -12.441406 L 9.734375 -4.722656 L 3.804688 -12.441406 L 1.273438 -12.441406 L 1.273438 0 Z M 4.171875 0 "/></g></g></g><g fill="#ffffff" fill-opacity="1"><g transform="translate(173.069647, 97.38407)"><g><path d="M 4.171875 0 L 4.171875 -12.441406 L 1.273438 -12.441406 L 1.273438 0 Z M 4.171875 0 "/></g></g></g><g fill="#ffffff" fill-opacity="1"><g transform="translate(182.269501, 97.38407)"><g><path d="M 12.972656 0 L 7.867188 -12.453125 L 5.152344 -12.453125 L 0.046875 0 L 3.109375 0 L 3.914062 -2.023438 L 9.105469 -2.023438 L 9.910156 0 Z M 6.414062 -8.316406 L 6.496094 -8.703125 L 6.523438 -8.703125 L 6.605469 -8.316406 L 8.152344 -4.429688 L 4.867188 -4.429688 Z M 6.414062 -8.316406 "/></g></g></g><g fill="#ffffff" fill-opacity="1"><g transform="translate(199.03347, 97.38407)"><g><path d="M 4.171875 0 L 4.171875 -3.695312 L 6.699219 -3.695312 C 9.285156 -3.695312 11.144531 -5.453125 11.144531 -8.132812 C 11.144531 -10.632812 9.269531 -12.441406 6.660156 -12.441406 L 1.273438 -12.441406 L 1.273438 0 Z M 4.171875 -9.863281 L 6.542969 -9.863281 C 7.492188 -9.863281 8.242188 -9.003906 8.242188 -8.132812 C 8.242188 -7.082031 7.484375 -6.265625 6.542969 -6.265625 L 4.171875 -6.265625 Z M 4.171875 -9.863281 "/></g></g></g><g fill="#ffffff" fill-opacity="1"><g transform="translate(214.132787, 97.38407)"><g><path d="M 4.171875 0 L 4.171875 -12.441406 L 1.273438 -12.441406 L 1.273438 0 Z M 4.171875 0 "/></g></g></g><g fill="#dbdbdb" fill-opacity="1"><g transform="translate(94.15805, 108.739656)"><g><path d="M 1.191406 0 L 1.191406 -2.753906 L 3.339844 0 L 3.957031 0 L 3.957031 -3.941406 L 3.238281 -3.941406 L 3.238281 -1.183594 L 1.089844 -3.941406 L 0.46875 -3.941406 L 0.46875 0 Z M 1.191406 0 "/></g></g></g><g fill="#dbdbdb" fill-opacity="1"><g transform="translate(103.328685, 108.739656)"><g><path d="M 3.195312 0 L 3.195312 -0.644531 L 1.191406 -0.644531 L 1.191406 -1.699219 L 2.902344 -1.699219 L 2.902344 -2.304688 L 1.191406 -2.304688 L 1.191406 -3.292969 L 3.171875 -3.292969 L 3.171875 -3.941406 L 0.46875 -3.941406 L 0.46875 0 Z M 3.195312 0 "/></g></g></g><g fill="#dbdbdb" fill-opacity="1"><g transform="translate(111.460065, 108.739656)"><g><path d="M 2.015625 0 L 2.015625 -3.296875 L 3.191406 -3.296875 L 3.191406 -3.941406 L 0.125 -3.941406 L 0.125 -3.296875 L 1.296875 -3.296875 L 1.296875 0 Z M 2.015625 0 "/></g></g></g><g fill="#dbdbdb" fill-opacity="1"><g transform="translate(119.521968, 108.739656)"><g><path d="M 2.042969 0 L 2.953125 -2.953125 L 3.859375 0 L 4.5625 0 L 5.863281 -3.945312 L 5.097656 -3.945312 L 4.269531 -1.3125 L 4.191406 -0.96875 L 4.179688 -0.96875 L 4.113281 -1.292969 L 3.332031 -3.941406 L 2.570312 -3.941406 L 1.785156 -1.285156 L 1.726562 -0.96875 L 1.714844 -0.96875 L 1.640625 -1.277344 L 0.804688 -3.945312 L 0.0429688 -3.945312 L 1.34375 0 Z M 2.042969 0 "/></g></g></g><g fill="#dbdbdb" fill-opacity="1"><g transform="translate(130.168983, 108.739656)"><g><path d="M 2.316406 0.0859375 C 3.488281 0.0859375 4.441406 -0.832031 4.441406 -1.976562 C 4.441406 -3.121094 3.488281 -4.035156 2.316406 -4.035156 C 1.140625 -4.035156 0.191406 -3.121094 0.191406 -1.976562 C 0.191406 -0.832031 1.140625 0.0859375 2.316406 0.0859375 Z M 2.316406 -0.578125 C 1.542969 -0.578125 0.914062 -1.171875 0.914062 -1.972656 C 0.914062 -2.777344 1.539062 -3.371094 2.316406 -3.371094 C 3.09375 -3.371094 3.722656 -2.777344 3.722656 -1.972656 C 3.722656 -1.171875 3.09375 -0.578125 2.316406 -0.578125 Z M 2.316406 -0.578125 "/></g></g></g><g fill="#dbdbdb" fill-opacity="1"><g transform="translate(139.548048, 108.739656)"><g><path d="M 1.191406 0 L 1.191406 -1.398438 L 1.867188 -1.398438 C 1.917969 -1.398438 1.96875 -1.398438 2.019531 -1.398438 L 2.800781 0 L 3.628906 0 L 2.734375 -1.507812 C 3.21875 -1.679688 3.539062 -2.101562 3.539062 -2.65625 C 3.539062 -3.425781 2.96875 -3.941406 2.171875 -3.941406 L 0.46875 -3.941406 L 0.46875 0 Z M 1.191406 -3.296875 L 2.140625 -3.296875 C 2.523438 -3.296875 2.816406 -3.015625 2.816406 -2.65625 C 2.816406 -2.273438 2.527344 -2.007812 2.144531 -2.003906 L 1.191406 -2.003906 Z M 1.191406 -3.296875 "/></g></g></g><g fill="#dbdbdb" fill-opacity="1"><g transform="translate(148.047077, 108.739656)"><g><path d="M 3.675781 -3.941406 L 2.835938 -3.941406 L 1.191406 -1.867188 L 1.191406 -3.941406 L 0.46875 -3.941406 L 0.46875 0 L 1.191406 0 L 1.191406 -0.910156 L 1.800781 -1.671875 L 3.023438 0 L 3.878906 0 L 2.273438 -2.195312 Z M 3.675781 -3.941406 "/></g></g></g><g fill="#dbdbdb" fill-opacity="1"><g transform="translate(156.711113, 108.739656)"><g/></g></g><g fill="#dbdbdb" fill-opacity="1"><g transform="translate(162.905829, 108.739656)"><g><path d="M 1.191406 0 L 1.191406 -3.941406 L 0.46875 -3.941406 L 0.46875 0 Z M 1.191406 0 "/></g></g></g><g fill="#dbdbdb" fill-opacity="1"><g transform="translate(169.31187, 108.739656)"><g><path d="M 1.191406 0 L 1.191406 -2.753906 L 3.339844 0 L 3.957031 0 L 3.957031 -3.941406 L 3.238281 -3.941406 L 3.238281 -1.183594 L 1.089844 -3.941406 L 0.46875 -3.941406 L 0.46875 0 Z M 1.191406 0 "/></g></g></g><g fill="#dbdbdb" fill-opacity="1"><g transform="translate(178.482503, 108.739656)"><g><path d="M 1.191406 0 L 1.191406 -1.546875 L 2.902344 -1.546875 L 2.902344 -2.15625 L 1.191406 -2.15625 L 1.191406 -3.292969 L 3.171875 -3.292969 L 3.171875 -3.941406 L 0.46875 -3.941406 L 0.46875 0 Z M 1.191406 0 "/></g></g></g><g fill="#dbdbdb" fill-opacity="1"><g transform="translate(186.567562, 108.739656)"><g><path d="M 2.316406 0.0859375 C 3.488281 0.0859375 4.441406 -0.832031 4.441406 -1.976562 C 4.441406 -3.121094 3.488281 -4.035156 2.316406 -4.035156 C 1.140625 -4.035156 0.191406 -3.121094 0.191406 -1.976562 C 0.191406 -0.832031 1.140625 0.0859375 2.316406 0.0859375 Z M 2.316406 -0.578125 C 1.542969 -0.578125 0.914062 -1.171875 0.914062 -1.972656 C 0.914062 -2.777344 1.539062 -3.371094 2.316406 -3.371094 C 3.09375 -3.371094 3.722656 -2.777344 3.722656 -1.972656 C 3.722656 -1.171875 3.09375 -0.578125 2.316406 -0.578125 Z M 2.316406 -0.578125 "/></g></g></g><g fill="#dbdbdb" fill-opacity="1"><g transform="translate(195.946625, 108.739656)"><g><path d="M 1.191406 0 L 1.191406 -1.398438 L 1.867188 -1.398438 C 1.917969 -1.398438 1.96875 -1.398438 2.019531 -1.398438 L 2.800781 0 L 3.628906 0 L 2.734375 -1.507812 C 3.21875 -1.679688 3.539062 -2.101562 3.539062 -2.65625 C 3.539062 -3.425781 2.96875 -3.941406 2.171875 -3.941406 L 0.46875 -3.941406 L 0.46875 0 Z M 1.191406 -3.296875 L 2.140625 -3.296875 C 2.523438 -3.296875 2.816406 -3.015625 2.816406 -2.65625 C 2.816406 -2.273438 2.527344 -2.007812 2.144531 -2.003906 L 1.191406 -2.003906 Z M 1.191406 -3.296875 "/></g></g></g><g fill="#dbdbdb" fill-opacity="1"><g transform="translate(204.44565, 108.739656)"><g><path d="M 1.191406 0 L 1.191406 -2.789062 L 2.359375 -1.171875 L 2.554688 -1.171875 L 3.730469 -2.785156 L 3.730469 0 L 4.453125 0 L 4.453125 -3.941406 L 3.824219 -3.941406 L 2.457031 -2.105469 L 1.097656 -3.941406 L 0.46875 -3.941406 L 0.46875 0 Z M 1.191406 0 "/></g></g></g><g fill="#dbdbdb" fill-opacity="1"><g transform="translate(214.111303, 108.739656)"><g><path d="M 3.988281 0 L 2.351562 -3.945312 L 1.667969 -3.945312 L 0.0273438 0 L 0.789062 0 L 1.101562 -0.761719 L 2.914062 -0.761719 L 3.226562 0 Z M 1.980469 -2.917969 L 2.003906 -3.015625 L 2.015625 -3.015625 L 2.03125 -2.917969 L 2.667969 -1.363281 L 1.347656 -1.363281 Z M 1.980469 -2.917969 "/></g></g></g><g fill="#dbdbdb" fill-opacity="1"><g transform="translate(222.876655, 108.739656)"><g><path d="M 2.015625 0 L 2.015625 -3.296875 L 3.191406 -3.296875 L 3.191406 -3.941406 L 0.125 -3.941406 L 0.125 -3.296875 L 1.296875 -3.296875 L 1.296875 0 Z M 2.015625 0 "/></g></g></g><g fill="#dbdbdb" fill-opacity="1"><g transform="translate(230.938563, 108.739656)"><g><path d="M 1.191406 0 L 1.191406 -3.941406 L 0.46875 -3.941406 L 0.46875 0 Z M 1.191406 0 "/></g></g></g><g fill="#dbdbdb" fill-opacity="1"><g transform="translate(237.344612, 108.739656)"><g><path d="M 2.316406 0.0859375 C 3.488281 0.0859375 4.441406 -0.832031 4.441406 -1.976562 C 4.441406 -3.121094 3.488281 -4.035156 2.316406 -4.035156 C 1.140625 -4.035156 0.191406 -3.121094 0.191406 -1.976562 C 0.191406 -0.832031 1.140625 0.0859375 2.316406 0.0859375 Z M 2.316406 -0.578125 C 1.542969 -0.578125 0.914062 -1.171875 0.914062 -1.972656 C 0.914062 -2.777344 1.539062 -3.371094 2.316406 -3.371094 C 3.09375 -3.371094 3.722656 -2.777344 3.722656 -1.972656 C 3.722656 -1.171875 3.09375 -0.578125 2.316406 -0.578125 Z M 2.316406 -0.578125 "/></g></g></g><g fill="#dbdbdb" fill-opacity="1"><g transform="translate(246.723681, 108.739656)"><g><path d="M 1.191406 0 L 1.191406 -2.753906 L 3.339844 0 L 3.957031 0 L 3.957031 -3.941406 L 3.238281 -3.941406 L 3.238281 -1.183594 L 1.089844 -3.941406 L 0.46875 -3.941406 L 0.46875 0 Z M 1.191406 0 "/></g></g></g><g fill="#dbdbdb" fill-opacity="1"><g transform="translate(255.894321, 108.739656)"><g/></g></g><g fill="#dbdbdb" fill-opacity="1"><g transform="translate(262.089045, 108.739656)"><g><path d="M 3.988281 0 L 2.351562 -3.945312 L 1.667969 -3.945312 L 0.0273438 0 L 0.789062 0 L 1.101562 -0.761719 L 2.914062 -0.761719 L 3.226562 0 Z M 1.980469 -2.917969 L 2.003906 -3.015625 L 2.015625 -3.015625 L 2.03125 -2.917969 L 2.667969 -1.363281 L 1.347656 -1.363281 Z M 1.980469 -2.917969 "/></g></g></g><g fill="#dbdbdb" fill-opacity="1"><g transform="translate(270.854404, 108.739656)"><g><path d="M 1.191406 0 L 1.191406 -1.257812 L 2.140625 -1.257812 C 2.933594 -1.257812 3.496094 -1.800781 3.496094 -2.613281 C 3.496094 -3.382812 2.925781 -3.941406 2.128906 -3.941406 L 0.46875 -3.941406 L 0.46875 0 Z M 1.191406 -3.296875 L 2.101562 -3.296875 C 2.484375 -3.296875 2.777344 -2.972656 2.777344 -2.613281 C 2.777344 -2.207031 2.484375 -1.902344 2.105469 -1.902344 L 1.191406 -1.902344 Z M 1.191406 -3.296875 "/></g></g></g><g fill="#dbdbdb" fill-opacity="1"><g transform="translate(279.188429, 108.739656)"><g><path d="M 1.191406 0 L 1.191406 -3.941406 L 0.46875 -3.941406 L 0.46875 0 Z M 1.191406 0 "/></g></g></g><g clip-path="url(#8ac5aaf4d8)"><path fill="#85c7f2" d="M 187.332031 0.507812 C 191.425781 0.507812 194.746094 3.832031 194.746094 7.914062 C 194.746094 8.683594 194.746094 9.191406 194.484375 9.699219 L 205.449219 16.085938 C 206.726562 14.808594 208.511719 14.039062 210.558594 14.039062 C 214.632812 14.039062 217.953125 17.363281 217.953125 21.441406 C 217.953125 24.765625 215.664062 27.566406 212.601562 28.585938 L 212.601562 41.34375 C 215.664062 42.113281 217.953125 44.914062 217.953125 48.238281 C 217.953125 52.320312 214.632812 55.640625 210.558594 55.640625 C 206.480469 55.640625 203.160156 52.320312 203.160156 48.238281 C 203.160156 44.914062 205.449219 42.113281 208.511719 41.34375 L 208.511719 28.585938 C 205.449219 27.566406 203.160156 24.753906 203.160156 21.441406 C 203.160156 20.933594 203.160156 20.425781 203.417969 19.65625 L 192.453125 13.53125 C 191.175781 14.546875 189.394531 15.316406 187.347656 15.316406 C 183.269531 15.316406 179.949219 11.992188 179.949219 7.914062 C 179.949219 3.832031 183.257812 0.507812 187.332031 0.507812 Z M 171.261719 23.226562 L 182.226562 29.351562 C 183.503906 28.335938 185.289062 27.566406 187.332031 27.566406 C 191.410156 27.566406 194.730469 30.890625 194.730469 34.972656 C 194.730469 38.292969 192.441406 41.097656 189.378906 41.867188 L 189.378906 54.625 C 192.441406 55.640625 194.730469 58.457031 194.730469 61.769531 C 194.730469 65.847656 191.410156 69.171875 187.332031 69.171875 C 183.257812 69.171875 179.9375 65.847656 179.9375 61.769531 C 179.9375 58.445312 182.226562 55.640625 185.042969 54.625 L 185.042969 41.867188 C 182.242188 41.097656 179.9375 38.292969 179.9375 34.972656 C 179.9375 34.203125 179.9375 33.695312 180.195312 33.183594 L 169.230469 26.796875 C 167.691406 28.074219 165.910156 28.84375 164.125 28.84375 C 160.046875 28.84375 156.726562 25.535156 156.726562 21.441406 C 156.726562 17.347656 160.046875 14.039062 164.125 14.039062 C 168.199219 14.039062 171.523438 17.363281 171.523438 21.441406 C 171.523438 21.949219 171.261719 22.472656 171.261719 23.226562 Z M 164.125 40.851562 C 168.199219 40.851562 171.523438 44.171875 171.523438 48.253906 C 171.523438 52.332031 168.199219 55.65625 164.125 55.65625 C 160.046875 55.65625 156.726562 52.332031 156.726562 48.253906 C 156.726562 44.171875 160.046875 40.851562 164.125 40.851562 Z M 164.125 40.851562 " fill-opacity="1" fill-rule="nonzero"/></g></svg>