<svg xmlns="http://www.w3.org/2000/svg" xmlns:xlink="http://www.w3.org/1999/xlink" width="500" zoomAndPan="magnify" viewBox="0 0 375 374.999991" height="500" preserveAspectRatio="xMidYMid meet" version="1.0"><defs><g/><clipPath id="b8bd777c59"><path d="M 139.082031 99.785156 L 235.832031 99.785156 L 235.832031 208.492188 L 139.082031 208.492188 Z M 139.082031 99.785156 " clip-rule="nonzero"/></clipPath></defs><rect x="-37.5" width="450" fill="#ffffff" y="-37.499999" height="449.999989" fill-opacity="1"/><rect x="-37.5" width="450" fill="#000000" y="-37.499999" height="449.999989" fill-opacity="1"/><g fill="#ffffff" fill-opacity="1"><g transform="translate(137.023202, 252.190121)"><g><path d="M 6.566406 0 L 6.566406 -12.164062 L 6.578125 -12.164062 L 15.9375 0 L 19.878906 0 L 19.878906 -19.578125 L 15.316406 -19.578125 L 15.316406 -7.429688 L 5.988281 -19.578125 L 2 -19.578125 L 2 0 Z M 6.566406 0 "/></g></g></g><g fill="#ffffff" fill-opacity="1"><g transform="translate(164.795408, 252.190121)"><g><path d="M 6.566406 0 L 6.566406 -19.578125 L 2 -19.578125 L 2 0 Z M 6.566406 0 "/></g></g></g><g fill="#ffffff" fill-opacity="1"><g transform="translate(179.270381, 252.190121)"><g><path d="M 20.414062 0 L 12.378906 -19.59375 L 8.105469 -19.59375 L 0.0703125 0 L 4.894531 0 L 6.160156 -3.179688 L 14.324219 -3.179688 L 15.589844 0 Z M 10.089844 -13.085938 L 10.222656 -13.691406 L 10.265625 -13.691406 L 10.394531 -13.085938 L 12.828125 -6.96875 L 7.660156 -6.96875 Z M 10.089844 -13.085938 "/></g></g></g><g fill="#ffffff" fill-opacity="1"><g transform="translate(205.64667, 252.190121)"><g><path d="M 6.566406 0 L 6.566406 -5.816406 L 10.539062 -5.816406 C 14.613281 -5.816406 17.535156 -8.578125 17.535156 -12.796875 C 17.535156 -16.726562 14.582031 -19.578125 10.480469 -19.578125 L 2 -19.578125 L 2 0 Z M 6.566406 -15.519531 L 10.292969 -15.519531 C 11.789062 -15.519531 12.96875 -14.164062 12.96875 -12.796875 C 12.96875 -11.140625 11.777344 -9.859375 10.292969 -9.859375 L 6.566406 -9.859375 Z M 6.566406 -15.519531 "/></g></g></g><g fill="#ffffff" fill-opacity="1"><g transform="translate(229.403808, 252.190121)"><g><path d="M 6.566406 0 L 6.566406 -19.578125 L 2 -19.578125 L 2 0 Z M 6.566406 0 "/></g></g></g><g fill="#dbdbdb" fill-opacity="1"><g transform="translate(40.636569, 270.056877)"><g><path d="M 1.875 0 L 1.875 -4.335938 L 5.253906 0 L 6.222656 0 L 6.222656 -6.199219 L 5.09375 -6.199219 L 5.09375 -1.859375 L 1.714844 -6.199219 L 0.738281 -6.199219 L 0.738281 0 Z M 1.875 0 "/></g></g></g><g fill="#dbdbdb" fill-opacity="1"><g transform="translate(55.065569, 270.056877)"><g><path d="M 5.027344 0 L 5.027344 -1.015625 L 1.875 -1.015625 L 1.875 -2.671875 L 4.5625 -2.671875 L 4.5625 -3.628906 L 1.875 -3.628906 L 1.875 -5.183594 L 4.988281 -5.183594 L 4.988281 -6.199219 L 0.738281 -6.199219 L 0.738281 0 Z M 5.027344 0 "/></g></g></g><g fill="#dbdbdb" fill-opacity="1"><g transform="translate(67.859415, 270.056877)"><g><path d="M 3.171875 0 L 3.171875 -5.1875 L 5.019531 -5.1875 L 5.019531 -6.199219 L 0.195312 -6.199219 L 0.195312 -5.1875 L 2.042969 -5.1875 L 2.042969 0 Z M 3.171875 0 "/></g></g></g><g fill="#dbdbdb" fill-opacity="1"><g transform="translate(80.543945, 270.056877)"><g><path d="M 3.214844 0 L 4.644531 -4.644531 L 6.074219 0 L 7.175781 0 L 9.222656 -6.207031 L 8.019531 -6.207031 L 6.71875 -2.066406 L 6.59375 -1.523438 L 6.578125 -1.523438 L 6.472656 -2.035156 L 5.242188 -6.199219 L 4.042969 -6.199219 L 2.808594 -2.023438 L 2.71875 -1.523438 L 2.699219 -1.523438 L 2.582031 -2.011719 L 1.265625 -6.207031 L 0.0703125 -6.207031 L 2.117188 0 Z M 3.214844 0 "/></g></g></g><g fill="#dbdbdb" fill-opacity="1"><g transform="translate(97.295868, 270.056877)"><g><path d="M 3.644531 0.132812 C 5.488281 0.132812 6.988281 -1.308594 6.988281 -3.109375 C 6.988281 -4.910156 5.488281 -6.347656 3.644531 -6.347656 C 1.796875 -6.347656 0.300781 -4.910156 0.300781 -3.109375 C 0.300781 -1.308594 1.796875 0.132812 3.644531 0.132812 Z M 3.644531 -0.910156 C 2.425781 -0.910156 1.4375 -1.847656 1.4375 -3.105469 C 1.4375 -4.367188 2.421875 -5.308594 3.644531 -5.308594 C 4.871094 -5.308594 5.859375 -4.371094 5.859375 -3.105469 C 5.859375 -1.847656 4.871094 -0.910156 3.644531 -0.910156 Z M 3.644531 -0.910156 "/></g></g></g><g fill="#dbdbdb" fill-opacity="1"><g transform="translate(112.052812, 270.056877)"><g><path d="M 1.875 0 L 1.875 -2.199219 L 2.9375 -2.199219 C 3.019531 -2.199219 3.097656 -2.199219 3.179688 -2.203125 L 4.40625 0 L 5.707031 0 L 4.304688 -2.375 C 5.066406 -2.640625 5.566406 -3.304688 5.566406 -4.179688 C 5.566406 -5.390625 4.667969 -6.199219 3.414062 -6.199219 L 0.738281 -6.199219 L 0.738281 0 Z M 1.875 -5.1875 L 3.371094 -5.1875 C 3.972656 -5.1875 4.433594 -4.746094 4.433594 -4.179688 C 4.433594 -3.574219 3.976562 -3.160156 3.375 -3.15625 L 1.875 -3.15625 Z M 1.875 -5.1875 "/></g></g></g><g fill="#dbdbdb" fill-opacity="1"><g transform="translate(125.425112, 270.056877)"><g><path d="M 5.785156 -6.199219 L 4.460938 -6.199219 L 1.875 -2.9375 L 1.875 -6.199219 L 0.738281 -6.199219 L 0.738281 0 L 1.875 0 L 1.875 -1.429688 L 2.832031 -2.628906 L 4.753906 0 L 6.101562 0 L 3.574219 -3.457031 Z M 5.785156 -6.199219 "/></g></g></g><g fill="#dbdbdb" fill-opacity="1"><g transform="translate(139.057033, 270.056877)"><g/></g></g><g fill="#dbdbdb" fill-opacity="1"><g transform="translate(148.803748, 270.056877)"><g><path d="M 1.875 0 L 1.875 -6.199219 L 0.738281 -6.199219 L 0.738281 0 Z M 1.875 0 "/></g></g></g><g fill="#dbdbdb" fill-opacity="1"><g transform="translate(158.88296, 270.056877)"><g><path d="M 1.875 0 L 1.875 -4.335938 L 5.253906 0 L 6.222656 0 L 6.222656 -6.199219 L 5.09375 -6.199219 L 5.09375 -1.859375 L 1.714844 -6.199219 L 0.738281 -6.199219 L 0.738281 0 Z M 1.875 0 "/></g></g></g><g fill="#dbdbdb" fill-opacity="1"><g transform="translate(173.311956, 270.056877)"><g><path d="M 1.875 0 L 1.875 -2.433594 L 4.5625 -2.433594 L 4.5625 -3.390625 L 1.875 -3.390625 L 1.875 -5.183594 L 4.988281 -5.183594 L 4.988281 -6.199219 L 0.738281 -6.199219 L 0.738281 0 Z M 1.875 0 "/></g></g></g><g fill="#dbdbdb" fill-opacity="1"><g transform="translate(186.032921, 270.056877)"><g><path d="M 3.644531 0.132812 C 5.488281 0.132812 6.988281 -1.308594 6.988281 -3.109375 C 6.988281 -4.910156 5.488281 -6.347656 3.644531 -6.347656 C 1.796875 -6.347656 0.300781 -4.910156 0.300781 -3.109375 C 0.300781 -1.308594 1.796875 0.132812 3.644531 0.132812 Z M 3.644531 -0.910156 C 2.425781 -0.910156 1.4375 -1.847656 1.4375 -3.105469 C 1.4375 -4.367188 2.421875 -5.308594 3.644531 -5.308594 C 4.871094 -5.308594 5.859375 -4.371094 5.859375 -3.105469 C 5.859375 -1.847656 4.871094 -0.910156 3.644531 -0.910156 Z M 3.644531 -0.910156 "/></g></g></g><g fill="#dbdbdb" fill-opacity="1"><g transform="translate(200.789859, 270.056877)"><g><path d="M 1.875 0 L 1.875 -2.199219 L 2.9375 -2.199219 C 3.019531 -2.199219 3.097656 -2.199219 3.179688 -2.203125 L 4.40625 0 L 5.707031 0 L 4.304688 -2.375 C 5.066406 -2.640625 5.566406 -3.304688 5.566406 -4.179688 C 5.566406 -5.390625 4.667969 -6.199219 3.414062 -6.199219 L 0.738281 -6.199219 L 0.738281 0 Z M 1.875 -5.1875 L 3.371094 -5.1875 C 3.972656 -5.1875 4.433594 -4.746094 4.433594 -4.179688 C 4.433594 -3.574219 3.976562 -3.160156 3.375 -3.15625 L 1.875 -3.15625 Z M 1.875 -5.1875 "/></g></g></g><g fill="#dbdbdb" fill-opacity="1"><g transform="translate(214.162154, 270.056877)"><g><path d="M 1.875 0 L 1.875 -4.390625 L 3.710938 -1.847656 L 4.015625 -1.847656 L 5.871094 -4.382812 L 5.871094 0 L 7.007812 0 L 7.007812 -6.199219 L 6.019531 -6.199219 L 3.867188 -3.308594 L 1.726562 -6.199219 L 0.738281 -6.199219 L 0.738281 0 Z M 1.875 0 "/></g></g></g><g fill="#dbdbdb" fill-opacity="1"><g transform="translate(229.370011, 270.056877)"><g><path d="M 6.277344 0 L 3.699219 -6.207031 L 2.621094 -6.207031 L 0.0429688 0 L 1.238281 0 L 1.734375 -1.199219 L 4.585938 -1.199219 L 5.078125 0 Z M 3.117188 -4.589844 L 3.15625 -4.742188 L 3.167969 -4.742188 L 3.195312 -4.589844 L 4.199219 -2.148438 L 2.121094 -2.148438 Z M 3.117188 -4.589844 "/></g></g></g><g fill="#dbdbdb" fill-opacity="1"><g transform="translate(243.161343, 270.056877)"><g><path d="M 3.171875 0 L 3.171875 -5.1875 L 5.019531 -5.1875 L 5.019531 -6.199219 L 0.195312 -6.199219 L 0.195312 -5.1875 L 2.042969 -5.1875 L 2.042969 0 Z M 3.171875 0 "/></g></g></g><g fill="#dbdbdb" fill-opacity="1"><g transform="translate(255.845882, 270.056877)"><g><path d="M 1.875 0 L 1.875 -6.199219 L 0.738281 -6.199219 L 0.738281 0 Z M 1.875 0 "/></g></g></g><g fill="#dbdbdb" fill-opacity="1"><g transform="translate(265.925105, 270.056877)"><g><path d="M 3.644531 0.132812 C 5.488281 0.132812 6.988281 -1.308594 6.988281 -3.109375 C 6.988281 -4.910156 5.488281 -6.347656 3.644531 -6.347656 C 1.796875 -6.347656 0.300781 -4.910156 0.300781 -3.109375 C 0.300781 -1.308594 1.796875 0.132812 3.644531 0.132812 Z M 3.644531 -0.910156 C 2.425781 -0.910156 1.4375 -1.847656 1.4375 -3.105469 C 1.4375 -4.367188 2.421875 -5.308594 3.644531 -5.308594 C 4.871094 -5.308594 5.859375 -4.371094 5.859375 -3.105469 C 5.859375 -1.847656 4.871094 -0.910156 3.644531 -0.910156 Z M 3.644531 -0.910156 "/></g></g></g><g fill="#dbdbdb" fill-opacity="1"><g transform="translate(280.682054, 270.056877)"><g><path d="M 1.875 0 L 1.875 -4.335938 L 5.253906 0 L 6.222656 0 L 6.222656 -6.199219 L 5.09375 -6.199219 L 5.09375 -1.859375 L 1.714844 -6.199219 L 0.738281 -6.199219 L 0.738281 0 Z M 1.875 0 "/></g></g></g><g fill="#dbdbdb" fill-opacity="1"><g transform="translate(295.111062, 270.056877)"><g/></g></g><g fill="#dbdbdb" fill-opacity="1"><g transform="translate(304.857788, 270.056877)"><g><path d="M 6.277344 0 L 3.699219 -6.207031 L 2.621094 -6.207031 L 0.0429688 0 L 1.238281 0 L 1.734375 -1.199219 L 4.585938 -1.199219 L 5.078125 0 Z M 3.117188 -4.589844 L 3.15625 -4.742188 L 3.167969 -4.742188 L 3.195312 -4.589844 L 4.199219 -2.148438 L 2.121094 -2.148438 Z M 3.117188 -4.589844 "/></g></g></g><g fill="#dbdbdb" fill-opacity="1"><g transform="translate(318.649131, 270.056877)"><g><path d="M 1.875 0 L 1.875 -1.980469 L 3.371094 -1.980469 C 4.613281 -1.980469 5.503906 -2.835938 5.503906 -4.113281 C 5.503906 -5.320312 4.605469 -6.199219 3.351562 -6.199219 L 0.738281 -6.199219 L 0.738281 0 Z M 1.875 -5.1875 L 3.304688 -5.1875 C 3.90625 -5.1875 4.367188 -4.679688 4.367188 -4.113281 C 4.367188 -3.472656 3.90625 -2.992188 3.316406 -2.992188 L 1.875 -2.992188 Z M 1.875 -5.1875 "/></g></g></g><g fill="#dbdbdb" fill-opacity="1"><g transform="translate(331.761817, 270.056877)"><g><path d="M 1.875 0 L 1.875 -6.199219 L 0.738281 -6.199219 L 0.738281 0 Z M 1.875 0 "/></g></g></g><g clip-path="url(#b8bd777c59)"><path fill="#85c7f2" d="M 187.445312 99.761719 C 193.910156 99.761719 199.15625 105.027344 199.15625 111.484375 C 199.15625 112.703125 199.15625 113.507812 198.746094 114.3125 L 216.074219 124.421875 C 218.089844 122.402344 220.910156 121.183594 224.140625 121.183594 C 230.582031 121.183594 235.832031 126.445312 235.832031 132.90625 C 235.832031 138.167969 232.210938 142.601562 227.375 144.210938 L 227.375 164.414062 C 232.210938 165.632812 235.832031 170.070312 235.832031 175.332031 C 235.832031 181.789062 230.582031 187.050781 224.140625 187.050781 C 217.699219 187.050781 212.453125 181.789062 212.453125 175.332031 C 212.453125 170.070312 216.074219 165.632812 220.910156 164.414062 L 220.910156 144.210938 C 216.074219 142.601562 212.453125 138.144531 212.453125 132.90625 C 212.453125 132.101562 212.453125 131.296875 212.863281 130.078125 L 195.535156 120.378906 C 193.519531 121.988281 190.699219 123.207031 187.46875 123.207031 C 181.027344 123.207031 175.777344 117.941406 175.777344 111.484375 C 175.777344 105.027344 181.003906 99.761719 187.445312 99.761719 Z M 162.050781 135.730469 L 179.378906 145.429688 C 181.394531 143.820312 184.214844 142.601562 187.445312 142.601562 C 193.886719 142.601562 199.136719 147.867188 199.136719 154.324219 C 199.136719 159.585938 195.515625 164.023438 190.675781 165.242188 L 190.675781 185.441406 C 195.515625 187.050781 199.136719 191.511719 199.136719 196.75 C 199.136719 203.210938 193.886719 208.472656 187.445312 208.472656 C 181.003906 208.472656 175.757812 203.210938 175.757812 196.75 C 175.757812 191.488281 179.378906 187.050781 183.824219 185.441406 L 183.824219 165.242188 C 179.398438 164.023438 175.757812 159.585938 175.757812 154.324219 C 175.757812 153.105469 175.757812 152.300781 176.167969 151.496094 L 158.839844 141.386719 C 156.410156 143.40625 153.589844 144.625 150.769531 144.625 C 144.332031 144.625 139.082031 139.382812 139.082031 132.90625 C 139.082031 126.425781 144.332031 121.183594 150.769531 121.183594 C 157.210938 121.183594 162.460938 126.445312 162.460938 132.90625 C 162.460938 133.707031 162.050781 134.535156 162.050781 135.730469 Z M 150.769531 163.632812 C 157.210938 163.632812 162.460938 168.894531 162.460938 175.351562 C 162.460938 181.8125 157.210938 187.074219 150.769531 187.074219 C 144.332031 187.074219 139.082031 181.8125 139.082031 175.351562 C 139.082031 168.894531 144.332031 163.632812 150.769531 163.632812 Z M 150.769531 163.632812 " fill-opacity="1" fill-rule="nonzero"/></g></svg>
