<svg xmlns="http://www.w3.org/2000/svg" xmlns:xlink="http://www.w3.org/1999/xlink" width="500" zoomAndPan="magnify" viewBox="0 0 375 374.999991" height="500" preserveAspectRatio="xMidYMid meet" version="1.0"><defs><g/></defs><rect x="-37.5" width="450" fill="#ffffff" y="-37.499999" height="449.999989" fill-opacity="1"/><rect x="-37.5" width="450" fill="#ffffff" y="-37.499999" height="449.999989" fill-opacity="1"/><g fill="#4c4c4c" fill-opacity="1"><g transform="translate(13.361054, 212.080081)"><g><path d="M 22.644531 0 L 22.644531 -41.964844 L 22.695312 -41.964844 L 54.976562 0 L 68.585938 0 L 68.585938 -67.542969 L 52.839844 -67.542969 L 52.839844 -25.625 L 20.660156 -67.542969 L 6.902344 -67.542969 L 6.902344 0 Z M 22.644531 0 "/></g></g></g><g fill="#4c4c4c" fill-opacity="1"><g transform="translate(109.170723, 212.080081)"><g><path d="M 22.644531 0 L 22.644531 -67.542969 L 6.902344 -67.542969 L 6.902344 0 Z M 22.644531 0 "/></g></g></g><g fill="#4c4c4c" fill-opacity="1"><g transform="translate(159.107065, 212.080081)"><g><path d="M 70.421875 0 L 42.710938 -67.589844 L 27.960938 -67.589844 L 0.25 0 L 16.886719 0 L 21.253906 -10.976562 L 49.414062 -10.976562 L 53.785156 0 Z M 34.8125 -45.144531 L 35.261719 -47.230469 L 35.410156 -47.230469 L 35.855469 -45.144531 L 44.25 -24.035156 L 26.421875 -24.035156 Z M 34.8125 -45.144531 "/></g></g></g><g fill="#4c4c4c" fill-opacity="1"><g transform="translate(250.101045, 212.080081)"><g><path d="M 22.644531 0 L 22.644531 -20.0625 L 36.351562 -20.0625 C 50.40625 -20.0625 60.488281 -29.597656 60.488281 -44.152344 C 60.488281 -57.707031 50.308594 -67.542969 36.15625 -67.542969 L 6.902344 -67.542969 L 6.902344 0 Z M 22.644531 -53.535156 L 35.507812 -53.535156 C 40.675781 -53.535156 44.746094 -48.867188 44.746094 -44.152344 C 44.746094 -38.4375 40.625 -34.019531 35.507812 -34.019531 L 22.644531 -34.019531 Z M 22.644531 -53.535156 "/></g></g></g><g fill="#4c4c4c" fill-opacity="1"><g transform="translate(332.059372, 212.080081)"><g><path d="M 22.644531 0 L 22.644531 -67.542969 L 6.902344 -67.542969 L 6.902344 0 Z M 22.644531 0 "/></g></g></g></svg>
